<mxfile host="app.diagrams.net" modified="2022-02-14T06:56:47.682Z" agent="5.0 (Windows NT 6.1; Win64; x64) AppleWebKit/537.36 (KHTML, like Gecko) Chrome/97.0.4692.99 Safari/537.36" etag="5P_KXTwvh_NUwildsh3v" version="16.5.6" type="github">
  <diagram id="1GiO4_zSj_rHbKYG_OWa" name="Page-1">
    <mxGraphModel dx="1609" dy="738" grid="1" gridSize="10" guides="1" tooltips="1" connect="1" arrows="1" fold="1" page="1" pageScale="1" pageWidth="827" pageHeight="1169" math="0" shadow="0">
      <root>
        <mxCell id="0" />
        <mxCell id="1" parent="0" />
        <mxCell id="ESuQdc0ftRIypF5NtIxR-1" value="Member" style="whiteSpace=wrap;html=1;align=center;" vertex="1" parent="1">
          <mxGeometry x="364" y="80" width="104" height="40" as="geometry" />
        </mxCell>
        <mxCell id="ESuQdc0ftRIypF5NtIxR-3" value="" style="endArrow=none;html=1;rounded=0;exitX=-0.007;exitY=0.978;exitDx=0;exitDy=0;exitPerimeter=0;" edge="1" parent="1" source="ESuQdc0ftRIypF5NtIxR-28" target="ESuQdc0ftRIypF5NtIxR-6">
          <mxGeometry relative="1" as="geometry">
            <mxPoint x="480" y="150" as="sourcePoint" />
            <mxPoint x="610" y="200" as="targetPoint" />
          </mxGeometry>
        </mxCell>
        <mxCell id="ESuQdc0ftRIypF5NtIxR-4" value="" style="endArrow=none;html=1;rounded=0;entryX=0.056;entryY=0.058;entryDx=0;entryDy=0;entryPerimeter=0;exitX=1;exitY=0;exitDx=0;exitDy=0;" edge="1" parent="1" source="ESuQdc0ftRIypF5NtIxR-5" target="ESuQdc0ftRIypF5NtIxR-28">
          <mxGeometry relative="1" as="geometry">
            <mxPoint x="230" y="340" as="sourcePoint" />
            <mxPoint x="384" y="260" as="targetPoint" />
          </mxGeometry>
        </mxCell>
        <mxCell id="ESuQdc0ftRIypF5NtIxR-5" value="Professor" style="whiteSpace=wrap;html=1;align=center;" vertex="1" parent="1">
          <mxGeometry x="-50" y="310" width="100" height="40" as="geometry" />
        </mxCell>
        <mxCell id="ESuQdc0ftRIypF5NtIxR-6" value="Grad" style="whiteSpace=wrap;html=1;align=center;" vertex="1" parent="1">
          <mxGeometry x="605" y="340" width="100" height="40" as="geometry" />
        </mxCell>
        <mxCell id="ESuQdc0ftRIypF5NtIxR-7" value="SSN" style="ellipse;whiteSpace=wrap;html=1;align=center;fontStyle=4;" vertex="1" parent="1">
          <mxGeometry x="240" y="20" width="70" height="40" as="geometry" />
        </mxCell>
        <mxCell id="ESuQdc0ftRIypF5NtIxR-8" value="Name" style="ellipse;whiteSpace=wrap;html=1;align=center;" vertex="1" parent="1">
          <mxGeometry x="364" y="10" width="56" height="40" as="geometry" />
        </mxCell>
        <mxCell id="ESuQdc0ftRIypF5NtIxR-9" value="Age" style="ellipse;whiteSpace=wrap;html=1;align=center;" vertex="1" parent="1">
          <mxGeometry x="500" y="20" width="60" height="40" as="geometry" />
        </mxCell>
        <mxCell id="ESuQdc0ftRIypF5NtIxR-12" value="" style="endArrow=none;html=1;rounded=0;entryX=0;entryY=0;entryDx=0;entryDy=0;exitX=1;exitY=1;exitDx=0;exitDy=0;" edge="1" parent="1" source="ESuQdc0ftRIypF5NtIxR-7" target="ESuQdc0ftRIypF5NtIxR-1">
          <mxGeometry relative="1" as="geometry">
            <mxPoint x="310" y="50" as="sourcePoint" />
            <mxPoint x="470" y="50" as="targetPoint" />
          </mxGeometry>
        </mxCell>
        <mxCell id="ESuQdc0ftRIypF5NtIxR-13" value="" style="endArrow=none;html=1;rounded=0;exitX=0.413;exitY=0.967;exitDx=0;exitDy=0;exitPerimeter=0;entryX=1;entryY=0;entryDx=0;entryDy=0;" edge="1" parent="1" source="ESuQdc0ftRIypF5NtIxR-9" target="ESuQdc0ftRIypF5NtIxR-1">
          <mxGeometry relative="1" as="geometry">
            <mxPoint x="490" y="50" as="sourcePoint" />
            <mxPoint x="470" y="80" as="targetPoint" />
          </mxGeometry>
        </mxCell>
        <mxCell id="ESuQdc0ftRIypF5NtIxR-14" value="" style="endArrow=none;html=1;rounded=0;exitX=0.5;exitY=1;exitDx=0;exitDy=0;entryX=0.413;entryY=0.025;entryDx=0;entryDy=0;entryPerimeter=0;" edge="1" parent="1" source="ESuQdc0ftRIypF5NtIxR-8" target="ESuQdc0ftRIypF5NtIxR-1">
          <mxGeometry relative="1" as="geometry">
            <mxPoint x="400.00427124746193" y="49.996601717798185" as="sourcePoint" />
            <mxPoint x="400" y="74" as="targetPoint" />
          </mxGeometry>
        </mxCell>
        <mxCell id="ESuQdc0ftRIypF5NtIxR-20" value="rank" style="ellipse;whiteSpace=wrap;html=1;align=center;" vertex="1" parent="1">
          <mxGeometry x="40" y="200" width="70" height="40" as="geometry" />
        </mxCell>
        <mxCell id="ESuQdc0ftRIypF5NtIxR-21" value="research spec." style="ellipse;whiteSpace=wrap;html=1;align=center;" vertex="1" parent="1">
          <mxGeometry x="-110" y="200" width="70" height="40" as="geometry" />
        </mxCell>
        <mxCell id="ESuQdc0ftRIypF5NtIxR-23" value="" style="endArrow=none;html=1;rounded=0;entryX=0.75;entryY=0;entryDx=0;entryDy=0;exitX=0.5;exitY=1;exitDx=0;exitDy=0;" edge="1" parent="1" source="ESuQdc0ftRIypF5NtIxR-20" target="ESuQdc0ftRIypF5NtIxR-5">
          <mxGeometry relative="1" as="geometry">
            <mxPoint x="184.2842712474619" y="299.99660171779817" as="sourcePoint" />
            <mxPoint x="240" y="324.39" as="targetPoint" />
          </mxGeometry>
        </mxCell>
        <mxCell id="ESuQdc0ftRIypF5NtIxR-24" value="" style="endArrow=none;html=1;rounded=0;entryX=0.25;entryY=0;entryDx=0;entryDy=0;exitX=0.5;exitY=1;exitDx=0;exitDy=0;" edge="1" parent="1" source="ESuQdc0ftRIypF5NtIxR-21" target="ESuQdc0ftRIypF5NtIxR-5">
          <mxGeometry relative="1" as="geometry">
            <mxPoint x="130" y="310" as="sourcePoint" />
            <mxPoint x="205.72" y="174.39" as="targetPoint" />
          </mxGeometry>
        </mxCell>
        <mxCell id="ESuQdc0ftRIypF5NtIxR-25" value="Department" style="whiteSpace=wrap;html=1;align=center;" vertex="1" parent="1">
          <mxGeometry x="230" y="490" width="100" height="40" as="geometry" />
        </mxCell>
        <mxCell id="ESuQdc0ftRIypF5NtIxR-28" value="&#xa;&#xa;&lt;span style=&quot;color: rgb(0, 0, 0); font-family: helvetica; font-size: 12px; font-style: normal; font-weight: 400; letter-spacing: normal; text-align: center; text-indent: 0px; text-transform: none; word-spacing: 0px; background-color: rgb(255, 255, 255); display: inline; float: none;&quot;&gt;IS_A&lt;/span&gt;&#xa;&#xa;" style="triangle;whiteSpace=wrap;html=1;rotation=-90;labelPosition=center;verticalLabelPosition=middle;align=center;verticalAlign=middle;" vertex="1" parent="1">
          <mxGeometry x="384.09" y="139.99999999999997" width="63.81" height="79.35" as="geometry" />
        </mxCell>
        <mxCell id="ESuQdc0ftRIypF5NtIxR-30" value="" style="endArrow=none;html=1;rounded=0;entryX=1;entryY=0.5;entryDx=0;entryDy=0;exitX=0.5;exitY=1;exitDx=0;exitDy=0;" edge="1" parent="1" source="ESuQdc0ftRIypF5NtIxR-1" target="ESuQdc0ftRIypF5NtIxR-28">
          <mxGeometry relative="1" as="geometry">
            <mxPoint x="240" y="350" as="sourcePoint" />
            <mxPoint x="387.0223000000001" y="218.00663999999983" as="targetPoint" />
          </mxGeometry>
        </mxCell>
        <mxCell id="ESuQdc0ftRIypF5NtIxR-31" value="" style="endArrow=classic;html=1;rounded=0;exitX=0;exitY=1;exitDx=0;exitDy=0;shadow=0;fillColor=none;strokeWidth=2;entryX=0.844;entryY=0.35;entryDx=0;entryDy=0;entryPerimeter=0;" edge="1" parent="1" source="ESuQdc0ftRIypF5NtIxR-6" target="ESuQdc0ftRIypF5NtIxR-53">
          <mxGeometry width="50" height="50" relative="1" as="geometry">
            <mxPoint x="430" y="430" as="sourcePoint" />
            <mxPoint x="480" y="500" as="targetPoint" />
          </mxGeometry>
        </mxCell>
        <mxCell id="ESuQdc0ftRIypF5NtIxR-36" value="Project&lt;br&gt;" style="whiteSpace=wrap;html=1;align=center;" vertex="1" parent="1">
          <mxGeometry x="605" y="700" width="100" height="40" as="geometry" />
        </mxCell>
        <mxCell id="ESuQdc0ftRIypF5NtIxR-37" value="edate" style="ellipse;whiteSpace=wrap;html=1;align=center;" vertex="1" parent="1">
          <mxGeometry x="770" y="710" width="70" height="40" as="geometry" />
        </mxCell>
        <mxCell id="ESuQdc0ftRIypF5NtIxR-38" value="sdate" style="ellipse;whiteSpace=wrap;html=1;align=center;" vertex="1" parent="1">
          <mxGeometry x="750" y="770" width="70" height="40" as="geometry" />
        </mxCell>
        <mxCell id="ESuQdc0ftRIypF5NtIxR-39" value="budget" style="ellipse;whiteSpace=wrap;html=1;align=center;" vertex="1" parent="1">
          <mxGeometry x="770" y="650" width="70" height="40" as="geometry" />
        </mxCell>
        <mxCell id="ESuQdc0ftRIypF5NtIxR-40" value="Pno" style="ellipse;whiteSpace=wrap;html=1;align=center;fontStyle=4" vertex="1" parent="1">
          <mxGeometry x="540" y="780" width="70" height="40" as="geometry" />
        </mxCell>
        <mxCell id="ESuQdc0ftRIypF5NtIxR-41" value="sname" style="ellipse;whiteSpace=wrap;html=1;align=center;" vertex="1" parent="1">
          <mxGeometry x="630" y="770" width="70" height="40" as="geometry" />
        </mxCell>
        <mxCell id="ESuQdc0ftRIypF5NtIxR-42" value="" style="endArrow=none;html=1;rounded=0;entryX=0.5;entryY=0;entryDx=0;entryDy=0;exitX=1;exitY=1;exitDx=0;exitDy=0;" edge="1" parent="1" source="ESuQdc0ftRIypF5NtIxR-36" target="ESuQdc0ftRIypF5NtIxR-38">
          <mxGeometry relative="1" as="geometry">
            <mxPoint x="765" y="730" as="sourcePoint" />
            <mxPoint x="700" y="800" as="targetPoint" />
          </mxGeometry>
        </mxCell>
        <mxCell id="ESuQdc0ftRIypF5NtIxR-43" value="" style="endArrow=none;html=1;rounded=0;entryX=1;entryY=0.75;entryDx=0;entryDy=0;exitX=0;exitY=0.5;exitDx=0;exitDy=0;entryPerimeter=0;" edge="1" parent="1" source="ESuQdc0ftRIypF5NtIxR-37" target="ESuQdc0ftRIypF5NtIxR-36">
          <mxGeometry relative="1" as="geometry">
            <mxPoint x="775" y="700" as="sourcePoint" />
            <mxPoint x="710" y="770" as="targetPoint" />
          </mxGeometry>
        </mxCell>
        <mxCell id="ESuQdc0ftRIypF5NtIxR-44" value="" style="endArrow=none;html=1;rounded=0;exitX=0;exitY=1;exitDx=0;exitDy=0;entryX=1;entryY=0.25;entryDx=0;entryDy=0;" edge="1" parent="1" source="ESuQdc0ftRIypF5NtIxR-39" target="ESuQdc0ftRIypF5NtIxR-36">
          <mxGeometry relative="1" as="geometry">
            <mxPoint x="592.5" y="650" as="sourcePoint" />
            <mxPoint x="527.5" y="720" as="targetPoint" />
          </mxGeometry>
        </mxCell>
        <mxCell id="ESuQdc0ftRIypF5NtIxR-45" value="" style="endArrow=none;html=1;rounded=0;entryX=0.25;entryY=1;entryDx=0;entryDy=0;exitX=1;exitY=0;exitDx=0;exitDy=0;" edge="1" parent="1" source="ESuQdc0ftRIypF5NtIxR-40" target="ESuQdc0ftRIypF5NtIxR-36">
          <mxGeometry relative="1" as="geometry">
            <mxPoint x="665" y="625" as="sourcePoint" />
            <mxPoint x="600" y="695" as="targetPoint" />
          </mxGeometry>
        </mxCell>
        <mxCell id="ESuQdc0ftRIypF5NtIxR-46" value="" style="endArrow=none;html=1;rounded=0;entryX=0.5;entryY=1;entryDx=0;entryDy=0;exitX=0.5;exitY=0;exitDx=0;exitDy=0;" edge="1" parent="1" source="ESuQdc0ftRIypF5NtIxR-41" target="ESuQdc0ftRIypF5NtIxR-36">
          <mxGeometry relative="1" as="geometry">
            <mxPoint x="385" y="730" as="sourcePoint" />
            <mxPoint x="320" y="800" as="targetPoint" />
          </mxGeometry>
        </mxCell>
        <mxCell id="ESuQdc0ftRIypF5NtIxR-48" value="work-in" style="shape=rhombus;perimeter=rhombusPerimeter;whiteSpace=wrap;html=1;align=center;" vertex="1" parent="1">
          <mxGeometry x="610" y="500" width="90" height="60" as="geometry" />
        </mxCell>
        <mxCell id="ESuQdc0ftRIypF5NtIxR-51" value="" style="endArrow=none;html=1;rounded=0;shadow=0;strokeWidth=1;entryX=0.5;entryY=0;entryDx=0;entryDy=0;exitX=0.5;exitY=1;exitDx=0;exitDy=0;" edge="1" parent="1" source="ESuQdc0ftRIypF5NtIxR-6" target="ESuQdc0ftRIypF5NtIxR-48">
          <mxGeometry relative="1" as="geometry">
            <mxPoint x="530" y="600" as="sourcePoint" />
            <mxPoint x="690" y="600" as="targetPoint" />
          </mxGeometry>
        </mxCell>
        <mxCell id="ESuQdc0ftRIypF5NtIxR-52" value="" style="endArrow=none;html=1;rounded=0;shadow=0;strokeWidth=1;entryX=0.5;entryY=1;entryDx=0;entryDy=0;exitX=0.5;exitY=0;exitDx=0;exitDy=0;" edge="1" parent="1" source="ESuQdc0ftRIypF5NtIxR-36" target="ESuQdc0ftRIypF5NtIxR-48">
          <mxGeometry relative="1" as="geometry">
            <mxPoint x="540" y="610" as="sourcePoint" />
            <mxPoint x="700" y="610" as="targetPoint" />
          </mxGeometry>
        </mxCell>
        <mxCell id="ESuQdc0ftRIypF5NtIxR-53" value="major" style="shape=rhombus;perimeter=rhombusPerimeter;whiteSpace=wrap;html=1;align=center;" vertex="1" parent="1">
          <mxGeometry x="410" y="430" width="90" height="60" as="geometry" />
        </mxCell>
        <mxCell id="ESuQdc0ftRIypF5NtIxR-54" value="" style="endArrow=none;html=1;rounded=0;shadow=0;strokeWidth=1;entryX=0.167;entryY=0.667;entryDx=0;entryDy=0;exitX=1;exitY=0.25;exitDx=0;exitDy=0;entryPerimeter=0;" edge="1" parent="1" source="ESuQdc0ftRIypF5NtIxR-25" target="ESuQdc0ftRIypF5NtIxR-53">
          <mxGeometry relative="1" as="geometry">
            <mxPoint x="230" y="600" as="sourcePoint" />
            <mxPoint x="390" y="600" as="targetPoint" />
          </mxGeometry>
        </mxCell>
        <mxCell id="ESuQdc0ftRIypF5NtIxR-55" value="Dno" style="ellipse;whiteSpace=wrap;html=1;align=center;fontStyle=4" vertex="1" parent="1">
          <mxGeometry x="160" y="560" width="70" height="40" as="geometry" />
        </mxCell>
        <mxCell id="ESuQdc0ftRIypF5NtIxR-56" value="" style="endArrow=none;html=1;rounded=0;exitX=1;exitY=0;exitDx=0;exitDy=0;entryX=0.25;entryY=1;entryDx=0;entryDy=0;" edge="1" parent="1" source="ESuQdc0ftRIypF5NtIxR-55" target="ESuQdc0ftRIypF5NtIxR-25">
          <mxGeometry relative="1" as="geometry">
            <mxPoint x="305" y="415" as="sourcePoint" />
            <mxPoint x="245" y="530" as="targetPoint" />
          </mxGeometry>
        </mxCell>
        <mxCell id="ESuQdc0ftRIypF5NtIxR-57" value="name" style="ellipse;whiteSpace=wrap;html=1;align=center;" vertex="1" parent="1">
          <mxGeometry x="250" y="560" width="70" height="40" as="geometry" />
        </mxCell>
        <mxCell id="ESuQdc0ftRIypF5NtIxR-58" value="office" style="ellipse;whiteSpace=wrap;html=1;align=center;" vertex="1" parent="1">
          <mxGeometry x="330" y="560" width="70" height="40" as="geometry" />
        </mxCell>
        <mxCell id="ESuQdc0ftRIypF5NtIxR-59" value="" style="endArrow=none;html=1;rounded=0;exitX=1;exitY=1;exitDx=0;exitDy=0;entryX=0.221;entryY=0.05;entryDx=0;entryDy=0;entryPerimeter=0;" edge="1" parent="1" source="ESuQdc0ftRIypF5NtIxR-25" target="ESuQdc0ftRIypF5NtIxR-58">
          <mxGeometry relative="1" as="geometry">
            <mxPoint x="344.35533905932743" y="535.8578643762689" as="sourcePoint" />
            <mxPoint x="364" y="500" as="targetPoint" />
          </mxGeometry>
        </mxCell>
        <mxCell id="ESuQdc0ftRIypF5NtIxR-60" value="" style="endArrow=none;html=1;rounded=0;exitX=0.4;exitY=-0.075;exitDx=0;exitDy=0;entryX=0.5;entryY=1;entryDx=0;entryDy=0;exitPerimeter=0;" edge="1" parent="1" source="ESuQdc0ftRIypF5NtIxR-57" target="ESuQdc0ftRIypF5NtIxR-25">
          <mxGeometry relative="1" as="geometry">
            <mxPoint x="255.35533905932743" y="585.8578643762689" as="sourcePoint" />
            <mxPoint x="275" y="550" as="targetPoint" />
          </mxGeometry>
        </mxCell>
        <mxCell id="ESuQdc0ftRIypF5NtIxR-62" value="" style="endArrow=classic;html=1;rounded=0;shadow=0;fillColor=none;strokeWidth=2;entryX=1;entryY=0.5;entryDx=0;entryDy=0;" edge="1" parent="1" source="ESuQdc0ftRIypF5NtIxR-68" target="ESuQdc0ftRIypF5NtIxR-72">
          <mxGeometry width="50" height="50" relative="1" as="geometry">
            <mxPoint x="519" y="690" as="sourcePoint" />
            <mxPoint x="260" y="710" as="targetPoint" />
          </mxGeometry>
        </mxCell>
        <mxCell id="ESuQdc0ftRIypF5NtIxR-63" value="" style="endArrow=classic;html=1;rounded=0;exitX=0;exitY=1;exitDx=0;exitDy=0;shadow=0;fillColor=none;strokeWidth=2;entryX=1;entryY=0.5;entryDx=0;entryDy=0;" edge="1" parent="1" source="ESuQdc0ftRIypF5NtIxR-36" target="ESuQdc0ftRIypF5NtIxR-74">
          <mxGeometry width="50" height="50" relative="1" as="geometry">
            <mxPoint x="463.52" y="770" as="sourcePoint" />
            <mxPoint x="344.48" y="841" as="targetPoint" />
          </mxGeometry>
        </mxCell>
        <mxCell id="ESuQdc0ftRIypF5NtIxR-68" value="" style="rounded=0;whiteSpace=wrap;html=1;dashed=1;fillColor=none;" vertex="1" parent="1">
          <mxGeometry x="510" y="440" width="340" height="520" as="geometry" />
        </mxCell>
        <mxCell id="ESuQdc0ftRIypF5NtIxR-71" value="work-for" style="shape=rhombus;perimeter=rhombusPerimeter;whiteSpace=wrap;html=1;align=center;" vertex="1" parent="1">
          <mxGeometry x="110" y="330" width="90" height="60" as="geometry" />
        </mxCell>
        <mxCell id="ESuQdc0ftRIypF5NtIxR-72" value="supervise" style="shape=rhombus;perimeter=rhombusPerimeter;whiteSpace=wrap;html=1;align=center;" vertex="1" parent="1">
          <mxGeometry x="160" y="670" width="90" height="60" as="geometry" />
        </mxCell>
        <mxCell id="ESuQdc0ftRIypF5NtIxR-73" value="work-on" style="shape=rhombus;perimeter=rhombusPerimeter;whiteSpace=wrap;html=1;align=center;" vertex="1" parent="1">
          <mxGeometry x="110" y="750" width="90" height="60" as="geometry" />
        </mxCell>
        <mxCell id="ESuQdc0ftRIypF5NtIxR-74" value="manages" style="shape=rhombus;perimeter=rhombusPerimeter;whiteSpace=wrap;html=1;align=center;" vertex="1" parent="1">
          <mxGeometry x="90" y="840" width="90" height="60" as="geometry" />
        </mxCell>
        <mxCell id="ESuQdc0ftRIypF5NtIxR-75" value="chair" style="shape=rhombus;perimeter=rhombusPerimeter;whiteSpace=wrap;html=1;align=center;" vertex="1" parent="1">
          <mxGeometry x="70" y="400" width="90" height="60" as="geometry" />
        </mxCell>
        <mxCell id="ESuQdc0ftRIypF5NtIxR-76" value="" style="endArrow=classic;html=1;rounded=0;exitX=0;exitY=0;exitDx=0;exitDy=0;shadow=0;fillColor=none;strokeWidth=2;entryX=1;entryY=0.5;entryDx=0;entryDy=0;" edge="1" parent="1" source="ESuQdc0ftRIypF5NtIxR-25" target="ESuQdc0ftRIypF5NtIxR-75">
          <mxGeometry width="50" height="50" relative="1" as="geometry">
            <mxPoint x="299.04" y="394.5" as="sourcePoint" />
            <mxPoint x="180.00000000000006" y="465.5" as="targetPoint" />
          </mxGeometry>
        </mxCell>
        <mxCell id="ESuQdc0ftRIypF5NtIxR-77" value="" style="endArrow=none;html=1;rounded=0;shadow=0;strokeWidth=2;entryX=1;entryY=1;entryDx=0;entryDy=0;exitX=0;exitY=0.5;exitDx=0;exitDy=0;" edge="1" parent="1" source="ESuQdc0ftRIypF5NtIxR-71" target="ESuQdc0ftRIypF5NtIxR-5">
          <mxGeometry width="50" height="50" relative="1" as="geometry">
            <mxPoint x="90" y="560" as="sourcePoint" />
            <mxPoint x="140" y="510" as="targetPoint" />
          </mxGeometry>
        </mxCell>
        <mxCell id="ESuQdc0ftRIypF5NtIxR-78" value="" style="endArrow=none;html=1;rounded=0;shadow=0;strokeWidth=1;entryX=1;entryY=0.5;entryDx=0;entryDy=0;exitX=0.5;exitY=0;exitDx=0;exitDy=0;" edge="1" parent="1" source="ESuQdc0ftRIypF5NtIxR-25" target="ESuQdc0ftRIypF5NtIxR-71">
          <mxGeometry width="50" height="50" relative="1" as="geometry">
            <mxPoint x="190" y="520" as="sourcePoint" />
            <mxPoint x="240" y="470" as="targetPoint" />
          </mxGeometry>
        </mxCell>
        <mxCell id="ESuQdc0ftRIypF5NtIxR-79" value="time%" style="ellipse;whiteSpace=wrap;html=1;align=center;" vertex="1" parent="1">
          <mxGeometry x="200" y="280" width="70" height="40" as="geometry" />
        </mxCell>
        <mxCell id="ESuQdc0ftRIypF5NtIxR-80" value="" style="endArrow=none;html=1;rounded=0;shadow=0;strokeWidth=1;exitX=0.622;exitY=0.1;exitDx=0;exitDy=0;exitPerimeter=0;entryX=0;entryY=1;entryDx=0;entryDy=0;" edge="1" parent="1" source="ESuQdc0ftRIypF5NtIxR-71" target="ESuQdc0ftRIypF5NtIxR-79">
          <mxGeometry width="50" height="50" relative="1" as="geometry">
            <mxPoint x="190" y="320" as="sourcePoint" />
            <mxPoint x="240" y="270" as="targetPoint" />
          </mxGeometry>
        </mxCell>
        <mxCell id="ESuQdc0ftRIypF5NtIxR-82" value="" style="endArrow=none;html=1;rounded=0;shadow=0;strokeWidth=1;exitX=0.85;exitY=0.975;exitDx=0;exitDy=0;exitPerimeter=0;entryX=0;entryY=0.5;entryDx=0;entryDy=0;" edge="1" parent="1" source="ESuQdc0ftRIypF5NtIxR-5" target="ESuQdc0ftRIypF5NtIxR-75">
          <mxGeometry width="50" height="50" relative="1" as="geometry">
            <mxPoint x="175.98000000000002" y="346" as="sourcePoint" />
            <mxPoint x="220.25126265847098" y="324.1421356237306" as="targetPoint" />
          </mxGeometry>
        </mxCell>
        <mxCell id="ESuQdc0ftRIypF5NtIxR-83" value="" style="endArrow=none;html=1;rounded=0;shadow=0;strokeWidth=1;entryX=0;entryY=0.5;entryDx=0;entryDy=0;exitX=0.25;exitY=1;exitDx=0;exitDy=0;" edge="1" parent="1" source="ESuQdc0ftRIypF5NtIxR-5" target="ESuQdc0ftRIypF5NtIxR-73">
          <mxGeometry width="50" height="50" relative="1" as="geometry">
            <mxPoint x="-20" y="370" as="sourcePoint" />
            <mxPoint x="15" y="571" as="targetPoint" />
          </mxGeometry>
        </mxCell>
        <mxCell id="ESuQdc0ftRIypF5NtIxR-84" value="" style="endArrow=none;html=1;rounded=0;shadow=0;strokeWidth=1;exitX=0.5;exitY=1;exitDx=0;exitDy=0;entryX=0;entryY=0.5;entryDx=0;entryDy=0;" edge="1" parent="1" source="ESuQdc0ftRIypF5NtIxR-5" target="ESuQdc0ftRIypF5NtIxR-72">
          <mxGeometry width="50" height="50" relative="1" as="geometry">
            <mxPoint y="369" as="sourcePoint" />
            <mxPoint x="35" y="450" as="targetPoint" />
          </mxGeometry>
        </mxCell>
        <mxCell id="ESuQdc0ftRIypF5NtIxR-85" value="" style="endArrow=none;html=1;rounded=0;shadow=0;strokeWidth=1;entryX=0;entryY=0.5;entryDx=0;entryDy=0;exitX=0;exitY=1;exitDx=0;exitDy=0;" edge="1" parent="1" source="ESuQdc0ftRIypF5NtIxR-5" target="ESuQdc0ftRIypF5NtIxR-74">
          <mxGeometry width="50" height="50" relative="1" as="geometry">
            <mxPoint x="-70" y="365" as="sourcePoint" />
            <mxPoint x="65" y="795" as="targetPoint" />
          </mxGeometry>
        </mxCell>
        <mxCell id="ESuQdc0ftRIypF5NtIxR-86" value="" style="endArrow=none;html=1;rounded=0;shadow=0;strokeWidth=2;exitX=0;exitY=0.5;exitDx=0;exitDy=0;entryX=1;entryY=0.5;entryDx=0;entryDy=0;" edge="1" parent="1" source="ESuQdc0ftRIypF5NtIxR-36" target="ESuQdc0ftRIypF5NtIxR-73">
          <mxGeometry width="50" height="50" relative="1" as="geometry">
            <mxPoint x="380" y="740" as="sourcePoint" />
            <mxPoint x="350" y="780" as="targetPoint" />
          </mxGeometry>
        </mxCell>
        <mxCell id="ESuQdc0ftRIypF5NtIxR-87" value="" style="endArrow=classic;html=1;rounded=0;shadow=0;strokeWidth=2;exitX=1;exitY=0.25;exitDx=0;exitDy=0;entryX=0.138;entryY=0.386;entryDx=0;entryDy=0;entryPerimeter=0;" edge="1" parent="1" source="ESuQdc0ftRIypF5NtIxR-6" target="ESuQdc0ftRIypF5NtIxR-89">
          <mxGeometry width="50" height="50" relative="1" as="geometry">
            <mxPoint x="740" y="385" as="sourcePoint" />
            <mxPoint x="940" y="350" as="targetPoint" />
          </mxGeometry>
        </mxCell>
        <mxCell id="ESuQdc0ftRIypF5NtIxR-90" value="Student Advisor" style="edgeLabel;html=1;align=center;verticalAlign=middle;resizable=0;points=[];" vertex="1" connectable="0" parent="ESuQdc0ftRIypF5NtIxR-87">
          <mxGeometry x="0.254" relative="1" as="geometry">
            <mxPoint as="offset" />
          </mxGeometry>
        </mxCell>
        <mxCell id="ESuQdc0ftRIypF5NtIxR-88" value="" style="endArrow=none;html=1;rounded=0;shadow=0;strokeWidth=1;exitX=1;exitY=0.5;exitDx=0;exitDy=0;" edge="1" parent="1" source="ESuQdc0ftRIypF5NtIxR-6" target="ESuQdc0ftRIypF5NtIxR-89">
          <mxGeometry relative="1" as="geometry">
            <mxPoint x="550" y="500" as="sourcePoint" />
            <mxPoint x="900" y="430" as="targetPoint" />
          </mxGeometry>
        </mxCell>
        <mxCell id="ESuQdc0ftRIypF5NtIxR-92" value="Student" style="edgeLabel;html=1;align=center;verticalAlign=middle;resizable=0;points=[];" vertex="1" connectable="0" parent="ESuQdc0ftRIypF5NtIxR-88">
          <mxGeometry x="-0.6267" y="3" relative="1" as="geometry">
            <mxPoint as="offset" />
          </mxGeometry>
        </mxCell>
        <mxCell id="ESuQdc0ftRIypF5NtIxR-89" value="Relationship" style="shape=rhombus;perimeter=rhombusPerimeter;whiteSpace=wrap;html=1;align=center;fillColor=none;" vertex="1" parent="1">
          <mxGeometry x="930" y="325" width="80" height="70" as="geometry" />
        </mxCell>
        <mxCell id="ESuQdc0ftRIypF5NtIxR-96" value="Dependent" style="whiteSpace=wrap;html=1;align=center;fillColor=none;strokeWidth=3;" vertex="1" parent="1">
          <mxGeometry x="-290" y="320" width="100" height="35" as="geometry" />
        </mxCell>
        <mxCell id="ESuQdc0ftRIypF5NtIxR-98" value="policy" style="shape=rhombus;html=1;dashed=0;whitespace=wrap;perimeter=rhombusPerimeter;strokeWidth=3;fillColor=none;" vertex="1" parent="1">
          <mxGeometry x="-150" y="310" width="60" height="50" as="geometry" />
        </mxCell>
        <mxCell id="ESuQdc0ftRIypF5NtIxR-99" value="" style="endArrow=classic;html=1;rounded=0;shadow=0;fillColor=none;strokeWidth=2;entryX=0;entryY=0.5;entryDx=0;entryDy=0;" edge="1" parent="1" target="ESuQdc0ftRIypF5NtIxR-98">
          <mxGeometry width="50" height="50" relative="1" as="geometry">
            <mxPoint x="-190" y="338" as="sourcePoint" />
            <mxPoint x="-190" y="370" as="targetPoint" />
          </mxGeometry>
        </mxCell>
        <mxCell id="ESuQdc0ftRIypF5NtIxR-100" value="" style="endArrow=none;html=1;rounded=0;entryX=0;entryY=0.5;entryDx=0;entryDy=0;exitX=1;exitY=0.5;exitDx=0;exitDy=0;" edge="1" parent="1" source="ESuQdc0ftRIypF5NtIxR-98" target="ESuQdc0ftRIypF5NtIxR-5">
          <mxGeometry relative="1" as="geometry">
            <mxPoint x="85" y="250" as="sourcePoint" />
            <mxPoint x="35" y="320" as="targetPoint" />
          </mxGeometry>
        </mxCell>
        <mxCell id="ESuQdc0ftRIypF5NtIxR-101" value="&lt;u&gt;dname&lt;/u&gt;" style="ellipse;whiteSpace=wrap;html=1;align=center;strokeWidth=1;fillColor=none;" vertex="1" parent="1">
          <mxGeometry x="-280" y="260" width="100" height="40" as="geometry" />
        </mxCell>
        <mxCell id="ESuQdc0ftRIypF5NtIxR-102" value="" style="endArrow=none;html=1;rounded=0;exitX=0.5;exitY=1;exitDx=0;exitDy=0;" edge="1" parent="1" source="ESuQdc0ftRIypF5NtIxR-101" target="ESuQdc0ftRIypF5NtIxR-96">
          <mxGeometry relative="1" as="geometry">
            <mxPoint x="-65" y="250" as="sourcePoint" />
            <mxPoint x="-15" y="320" as="targetPoint" />
          </mxGeometry>
        </mxCell>
        <mxCell id="ESuQdc0ftRIypF5NtIxR-104" value="BDate" style="ellipse;whiteSpace=wrap;html=1;align=center;strokeWidth=1;fillColor=none;" vertex="1" parent="1">
          <mxGeometry x="-280" y="410" width="100" height="40" as="geometry" />
        </mxCell>
        <mxCell id="ESuQdc0ftRIypF5NtIxR-105" value="" style="endArrow=none;html=1;rounded=0;entryX=0.5;entryY=0;entryDx=0;entryDy=0;exitX=0.5;exitY=1;exitDx=0;exitDy=0;" edge="1" parent="1" source="ESuQdc0ftRIypF5NtIxR-96" target="ESuQdc0ftRIypF5NtIxR-104">
          <mxGeometry relative="1" as="geometry">
            <mxPoint x="-230" y="350" as="sourcePoint" />
            <mxPoint x="-225.33333333333326" y="330" as="targetPoint" />
          </mxGeometry>
        </mxCell>
      </root>
    </mxGraphModel>
  </diagram>
</mxfile>
